<svg width="207" height="222" viewBox="0 0 207 222" fill="none" xmlns="http://www.w3.org/2000/svg">
<path d="M168.291 104.979C169.805 100.271 170.604 95.3637 170.662 90.4204C170.648 77.6355 165.563 65.3786 156.523 56.3385C147.481 47.2984 135.224 42.2138 122.439 42.1992C108.745 42.2171 95.7168 48.1136 86.6634 58.3875H86.3987C75.5935 58.3778 65.0805 61.8919 56.4511 68.3955C47.8234 74.8993 41.5502 84.0384 38.5849 94.4296H32.9483C21.1786 94.4296 10.3002 100.709 4.41489 110.904C-1.47163 121.097 -1.47163 133.658 4.41489 143.851C10.2997 154.045 21.1781 160.325 32.9483 160.325H65.3187L51.1553 182.353V182.355C50.1956 183.847 50.1274 185.744 50.9783 187.301C51.8276 188.86 53.4612 189.828 55.236 189.828H65.0477L48.7829 214.226C48.057 215.296 47.7875 216.613 48.0359 217.882C48.2844 219.152 49.0297 220.269 50.1064 220.985C51.1814 221.703 52.5 221.961 53.7666 221.703C55.0333 221.443 56.1456 220.689 56.8536 219.608L78.1461 187.668C79.1383 186.18 79.2309 184.266 78.3864 182.689C77.542 181.112 75.8986 180.128 74.1108 180.128H64.1208L76.8537 160.324H105.121L96.3241 174.007C95.3644 175.501 95.2962 177.398 96.1471 178.955C96.9964 180.512 98.63 181.482 100.405 181.482H104.849L94.6351 196.803C93.9109 197.873 93.6446 199.189 93.893 200.457C94.1431 201.723 94.8868 202.839 95.9618 203.557C97.0368 204.273 98.3538 204.531 99.6205 204.273C100.885 204.016 101.996 203.264 102.706 202.185L117.948 179.322C118.94 177.835 119.032 175.92 118.188 174.343C117.345 172.766 115.7 171.782 113.912 171.782H109.288L116.655 160.325H144.125V160.324C152.72 160.324 160.974 156.967 167.129 150.967C173.282 144.966 176.848 136.8 177.065 128.208C177.283 119.618 174.134 111.281 168.291 104.977L168.291 104.979ZM122.438 51.9003C132.652 51.9117 142.444 55.9747 149.666 63.1961C156.887 70.4176 160.95 80.208 160.962 90.4221C160.945 93.1372 160.635 95.8426 160.036 98.4927C158.729 97.7766 157.374 97.1514 155.981 96.6237C155.7 96.5149 155.406 96.445 155.122 96.3443H155.124C153.729 95.8539 152.301 95.461 150.853 95.167C150.387 95.0712 149.923 94.9771 149.45 94.9024C147.691 94.6036 145.91 94.446 144.124 94.4314H136.352C135.787 92.4633 135.098 90.5341 134.291 88.6522C134.147 88.3095 134.012 87.9653 133.861 87.6275C133.072 85.8624 132.179 84.1459 131.185 82.488C130.992 82.1633 130.785 81.8498 130.584 81.5299C129.541 79.8508 128.4 78.2351 127.164 76.6923L127.052 76.564C125.818 75.0733 124.499 73.654 123.1 72.3158C122.84 72.0657 122.59 71.8091 122.325 71.564C120.93 70.2746 119.462 69.0664 117.929 67.9459C117.624 67.7218 117.312 67.5124 117.002 67.2948H117C115.396 66.1613 113.727 65.1236 112 64.1883C111.931 64.1509 111.858 64.1217 111.788 64.086C110.073 63.1912 108.308 62.3987 106.5 61.7119C106.176 61.5868 105.859 61.452 105.531 61.3335V61.3351C103.704 60.6758 101.84 60.127 99.9478 59.6918C99.787 59.6544 99.6376 59.5895 99.4769 59.5537V59.5521C106.104 54.5893 114.16 51.905 122.438 51.9005L122.438 51.9003ZM144.123 150.628H32.9489C24.6442 150.628 16.9685 146.197 12.8159 139.005C8.66362 131.811 8.66362 122.949 12.8159 115.755C16.9682 108.563 24.6442 104.131 32.9489 104.131H42.4177C44.7398 104.133 46.7374 102.485 47.1772 100.205C48.983 91.1374 53.8806 82.9786 61.0338 77.1216C68.187 71.2642 77.1523 68.0715 86.399 68.091H88.8429C98.0502 68.091 106.97 71.2966 114.072 77.1573C121.173 83.0164 126.012 91.1665 127.761 100.205L127.763 100.211V100.234H127.765C128.307 102.834 128.583 105.483 128.586 108.139V117.914V117.912C128.586 120.591 130.757 122.763 133.435 122.763C136.115 122.763 138.286 120.591 138.286 117.912V108.138C138.286 106.772 138.196 105.457 138.083 104.132H144.125C145.002 104.132 145.877 104.179 146.748 104.273C151.491 104.799 155.955 106.774 159.533 109.93C164.274 114.128 167.1 120.078 167.356 126.406C167.614 132.735 165.283 138.894 160.9 143.464C156.515 148.035 150.458 150.622 144.125 150.628L144.123 150.628Z" fill="black"/>
<path d="M123.232 31.3216C124.518 31.3216 125.752 30.8101 126.662 29.9007C127.571 28.9913 128.082 27.7572 128.082 26.4711V4.84893V4.85055C128.082 2.17115 125.91 0 123.232 0C120.552 0 118.381 2.17115 118.381 4.85055V26.4727V26.4711C118.381 29.1505 120.552 31.3216 123.232 31.3216Z" fill="black"/>
<path d="M79.6486 46.5877C81.5421 48.4811 84.6126 48.4811 86.5079 46.5877C88.4013 44.6942 88.4013 41.6236 86.5079 39.7284L71.2208 24.4413C69.3274 22.5463 66.2568 22.5463 64.3632 24.4413C62.4681 26.3348 62.4681 29.4054 64.3632 31.2989L79.6486 46.5877Z" fill="black"/>
<path d="M201.49 78.71H179.868C177.19 78.71 175.019 80.8811 175.019 83.5605C175.019 86.2383 177.19 88.4111 179.868 88.4111H201.49C204.168 88.4111 206.341 86.2383 206.341 83.5605C206.341 80.8811 204.168 78.71 201.49 78.71Z" fill="black"/>
<path d="M164.579 46.6081C165.867 46.6081 167.101 46.0965 168.009 45.1855L183.297 29.8985V29.9001C184.215 28.9923 184.733 27.7566 184.738 26.4656C184.741 25.1746 184.23 23.9356 183.317 23.023C182.404 22.1087 181.165 21.5988 179.874 21.6021C178.583 21.6053 177.348 22.1233 176.44 23.0424L161.151 38.3283C159.764 39.715 159.349 41.8018 160.1 43.6141C160.851 45.4247 162.617 46.6069 164.579 46.6069L164.579 46.6081Z" fill="black"/>
</svg>
